<svg width="280" height="280" viewBox="0 0 280 280" fill="none" xmlns="http://www.w3.org/2000/svg">
<g clip-path="url(#clip0_967_15)">
<mask id="mask0_967_15" style="mask-type:luminance" maskUnits="userSpaceOnUse" x="0" y="0" width="280" height="280">
<path d="M280 0H0V280H280V0Z" fill="white"/>
</mask>
<g mask="url(#mask0_967_15)">
<path d="M140 24C210.643 24 268 81.3568 268 152C268 222.643 210.643 280 140 280C69.3568 280 12 222.643 12 152C12 81.3568 69.3568 24 140 24Z" fill="#D9DFE6"/>
<mask id="mask1_967_15" style="mask-type:alpha" maskUnits="userSpaceOnUse" x="12" y="24" width="256" height="256">
<path d="M140 24C210.643 24 268 81.3568 268 152C268 222.643 210.643 280 140 280C69.3568 280 12 222.643 12 152C12 81.3568 69.3568 24 140 24Z" fill="#D9DFE6"/>
</mask>
<g mask="url(#mask1_967_15)">
<path d="M230 280L209.24 196.08C207.19 187.8 202.14 180.58 195.06 175.81L156.45 140.81C156.05 140.54 155.6 140.35 155.13 140.23L80 139C80 150.11 88.89 159.19 100 159.42L123.14 159.9V165.15L80 165C80 175.31 88.35 183.66 98.66 183.66H99L123.14 183.22V187.88L80 201C82.93 210.42 92.82 215.8 102.34 213.16L127.81 205.37L129.12 209.65L102.12 217.62C104.88 227.44 115.11 233.17 124.95 230.4C125.23 230.32 125.51 230.24 125.79 230.15L133.65 227.53L150.58 280H230Z" fill="#CCE7FF"/>
<path d="M230 280L209.24 196.08C207.19 187.8 202.14 180.58 195.06 175.81L156.45 140.81C156.05 140.54 155.6 140.35 155.13 140.23L80 139C80 150.11 88.89 159.19 100 159.42L123.14 159.9V165.15L80 165C80 175.31 88.35 183.66 98.66 183.66H99L123.14 183.22V187.88L80 201C82.93 210.42 92.82 215.8 102.34 213.16L127.81 205.37L129.12 209.65L102.12 217.62C104.88 227.44 115.11 233.17 124.95 230.4C125.23 230.32 125.51 230.24 125.79 230.15L133.65 227.53L150.58 280H230Z" stroke="black" stroke-width="2.222"/>
</g>
<mask id="mask2_967_15" style="mask-type:luminance" maskUnits="userSpaceOnUse" x="98" y="95" width="76" height="27">
<path d="M98 95H174V122H98V95Z" fill="white"/>
</mask>
<g mask="url(#mask2_967_15)">
<path d="M102 97H170C171.1 97 172 97.9 172 99V117C172 118.1 171.1 119 170 119H102C100.9 119 100 118.1 100 117V99C100 97.9 100.9 97 102 97Z" fill="white"/>
<path d="M102 97H170C171.1 97 172 97.9 172 99V117C172 118.1 171.1 119 170 119H102C100.9 119 100 118.1 100 117V99C100 97.9 100.9 97 102 97Z" stroke="black" stroke-width="2"/>
<g opacity="0.27">
<path d="M121 104C121 105.104 120.104 106 119 106H106C104.896 106 104 105.104 104 104C104 102.896 104.896 102 106 102H119C120.104 102 121 102.896 121 104Z" fill="#8645FF"/>
</g>
<g opacity="0.15">
<path d="M167 102C168.1 102 169 102.9 169 104C169 105.1 168.1 106 167 106C165.9 106 165 105.1 165 104C165 102.9 165.9 102 167 102ZM130 108C131.1 108 132 108.9 132 110C132 111.1 131.1 112 130 112H106C104.9 112 104 111.1 104 110C104 108.9 104.9 108 106 108H130ZM128 114C128.55 114 129 114.45 129 115C129 115.55 128.55 116 128 116H105C104.45 116 104 115.55 104 115C104 114.45 104.45 114 105 114H128ZM128 118C128.55 118 129 118.45 129 119C129 119.55 128.55 120 128 120H105C104.45 120 104 119.55 104 119C104 118.45 104.45 118 105 118H128ZM167 116C168.1 116 169 116.9 169 118C169 119.1 168.1 120 167 120H143C141.9 120 141 119.1 141 118C141 116.9 141.9 116 143 116H167Z" fill="#A1ACB6"/>
</g>
</g>
<mask id="mask3_967_15" style="mask-type:luminance" maskUnits="userSpaceOnUse" x="88" y="48" width="98" height="37">
<path d="M88 48H186V85H88V48Z" fill="white"/>
</mask>
<g mask="url(#mask3_967_15)">
<path d="M136 51H92C90.9 51 90 51.9 90 53V81C90 82.1 90.9 83 92 83H182C183.1 83 184 82.1 184 81V53C184 51.9 183.1 51 182 51H174" fill="white"/>
<path d="M136 51H92C90.9 51 90 51.9 90 53V81C90 82.1 90.9 83 92 83H182C183.1 83 184 82.1 184 81V53C184 51.9 183.1 51 182 51H174" stroke="black" stroke-width="2" stroke-linecap="round" stroke-linejoin="bevel"/>
<g opacity="0.27">
<path d="M96 55H114C115.1 55 116 55.9 116 57V58C116 59.1 115.1 60 114 60H96C94.9 60 94 59.1 94 58V57C94 55.9 94.9 55 96 55Z" fill="#8645FF"/>
</g>
<g opacity="0.15">
<path d="M127 76V77C127 77.5519 126.552 78 126 78H95C94.4481 78 94 77.5519 94 77V76C94 75.4481 94.4481 75 95 75H126C126.552 75 127 75.4481 127 76ZM127 71V72C127 72.5519 126.552 73 126 73H95C94.4481 73 94 72.5519 94 72V71C94 70.4481 94.4481 70 95 70H126C126.552 70 127 70.4481 127 71ZM179 74V77C179 77.5519 178.552 78 178 78H143C142.448 78 142 77.5519 142 77V74C142 73.4481 142.448 73 143 73H178C178.552 73 179 73.4481 179 74ZM179 57.5V59.5C179 60.3278 178.328 61 177.5 61H175.5C174.672 61 174 60.3278 174 59.5V57.5C174 56.6721 174.672 56 175.5 56H177.5C178.328 56 179 56.6721 179 57.5ZM131 64V67C131 67.5519 130.552 68 130 68H95C94.4481 68 94 67.5519 94 67V64C94 63.4481 94.4481 63 95 63H130C130.552 63 131 63.4481 131 64Z" fill="#A1ACB6"/>
</g>
<path d="M170 51H160" stroke="black" stroke-width="2" stroke-linecap="round"/>
</g>
<mask id="mask4_967_15" style="mask-type:luminance" maskUnits="userSpaceOnUse" x="73" y="-1" width="130" height="47">
<path d="M73 -1H203V46H73V-1Z" fill="white"/>
</mask>
<g mask="url(#mask4_967_15)">
<path d="M76 21V3C76 1.9 76.9 1 78 1H145H170H179H199C200.1 1 201 1.9 201 3V42C201 43.1 200.1 44 199 44H78C76.9 44 76 43.1 76 42" fill="white"/>
<path d="M76 21V3C76 1.9 76.9 1 78 1H145H170H179H199C200.1 1 201 1.9 201 3V42C201 43.1 200.1 44 199 44H78C76.9 44 76 43.1 76 42" stroke="black" stroke-width="2" stroke-linecap="round" stroke-linejoin="round"/>
<g opacity="0.27">
<path d="M82 6H109C110.1 6 111 6.9 111 8V11C111 12.1 110.1 13 109 13H82C80.9 13 80 12.1 80 11V8C80 6.9 80.9 6 82 6Z" fill="#8645FF"/>
</g>
<g opacity="0.15">
<path d="M125 35V38C125 38.5519 124.552 39 124 39H81C80.4481 39 80 38.5519 80 38V35C80 34.4481 80.4481 34 81 34H124C124.552 34 125 34.4481 125 35ZM125 27V30C125 30.5519 124.552 31 124 31H81C80.4481 31 80 30.5519 80 30V27C80 26.4481 80.4481 26 81 26H124C124.552 26 125 26.4481 125 27ZM195 33V38C195 38.5519 194.552 39 194 39H145C144.448 39 144 38.5519 144 38V33C144 32.4481 144.448 32 145 32H194C194.552 32 195 32.4481 195 33ZM195 7.5V11.5C195 12.3279 194.328 13 193.5 13H189.5C188.672 13 188 12.3279 188 11.5V7.5C188 6.67215 188.672 6 189.5 6H193.5C194.328 6 195 6.67215 195 7.5ZM131 17V22C131 22.5519 130.552 23 130 23H81C80.4481 23 80 22.5519 80 22V17C80 16.4481 80.4481 16 81 16H130C130.552 16 131 16.4481 131 17Z" fill="#A1ACB6"/>
</g>
<path d="M76 25V30" stroke="black" stroke-width="2" stroke-linecap="round"/>
</g>
<mask id="mask5_967_15" style="mask-type:alpha" maskUnits="userSpaceOnUse" x="12" y="24" width="256" height="256">
<path d="M140 24C210.643 24 268 81.3568 268 152C268 222.643 210.643 280 140 280C69.3568 280 12 222.643 12 152C12 81.3568 69.3568 24 140 24Z" fill="#D9DFE6"/>
</mask>
<g mask="url(#mask5_967_15)">
<path d="M148 109C152.51 109 160.35 109 171.52 109C178.41 109 184 114.59 184 121.49V273.51C184 280.41 178.41 286 171.52 286H102.48C95.59 286 90 280.41 90 273.51V121C90 114.37 95.37 109 102 109H109" fill="white"/>
</g>
<path d="M117.358 116C117.358 119.25 119.988 121.88 123.248 121.88H150.488C153.678 121.88 156.278 119.35 156.378 116.18V116H171.108C174.358 116 176.998 118.63 176.998 121.88V274.12C176.998 274.27 176.998 274.42 176.978 274.57C165.278 278.1 152.858 280 139.998 280C124.538 280 109.718 277.26 95.998 272.24V121.88C95.998 118.63 98.638 116 101.888 116H117.358Z" fill="#D9DFE6"/>
<mask id="mask6_967_15" style="mask-type:alpha" maskUnits="userSpaceOnUse" x="95" y="116" width="82" height="164">
<path d="M117.358 116C117.358 119.25 119.988 121.88 123.248 121.88H150.488C153.678 121.88 156.278 119.35 156.378 116.18V116H171.108C174.358 116 176.998 118.63 176.998 121.88V274.12C176.998 274.27 176.998 274.42 176.978 274.57C165.278 278.1 152.858 280 139.998 280C124.538 280 109.718 277.26 95.998 272.24V121.88C95.998 118.63 98.638 116 101.888 116H117.358Z" fill="#D9DFE6"/>
</mask>
<g mask="url(#mask6_967_15)">
<mask id="mask7_967_15" style="mask-type:luminance" maskUnits="userSpaceOnUse" x="100" y="64" width="73" height="284">
<path d="M100 64H173V348H100V64Z" fill="white"/>
</mask>
<g mask="url(#mask7_967_15)">
<mask id="mask8_967_15" style="mask-type:luminance" maskUnits="userSpaceOnUse" x="100" y="256" width="73" height="28">
<path d="M100 256H173V284H100V256Z" fill="white"/>
</mask>
<g mask="url(#mask8_967_15)">
<path d="M173 257V283C173 283.552 172.552 284 172 284H101C100.448 284 100 283.552 100 283V257C100 256.448 100.448 256 101 256H172C172.552 256 173 256.448 173 257Z" fill="white"/>
<g opacity="0.15">
<path d="M167 261C168.1 261 169 261.9 169 263C169 264.1 168.1 265 167 265C165.9 265 165 264.1 165 263C165 261.9 165.9 261 167 261ZM130 267C131.1 267 132 267.9 132 269C132 270.1 131.1 271 130 271H106C104.9 271 104 270.1 104 269C104 267.9 104.9 267 106 267H130ZM128 273C128.55 273 129 273.45 129 274C129 274.55 128.55 275 128 275H105C104.45 275 104 274.55 104 274C104 273.45 104.45 273 105 273H128ZM128 277C128.55 277 129 277.45 129 278C129 278.55 128.55 279 128 279H105C104.45 279 104 278.55 104 278C104 277.45 104.45 277 105 277H128ZM167 275C168.1 275 169 275.9 169 277C169 278.1 168.1 279 167 279H143C141.9 279 141 278.1 141 277C141 275.9 141.9 275 143 275H167Z" fill="#A1ACB6"/>
</g>
<g opacity="0.27">
<path d="M121 263C121 264.104 120.104 265 119 265H106C104.896 265 104 264.104 104 263C104 261.896 104.896 261 106 261H119C120.104 261 121 261.896 121 263Z" fill="#8645FF"/>
</g>
</g>
<mask id="mask9_967_15" style="mask-type:luminance" maskUnits="userSpaceOnUse" x="100" y="224" width="73" height="28">
<path d="M100 224H173V252H100V224Z" fill="white"/>
</mask>
<g mask="url(#mask9_967_15)">
<path d="M173 225V251C173 251.552 172.552 252 172 252H101C100.448 252 100 251.552 100 251V225C100 224.448 100.448 224 101 224H172C172.552 224 173 224.448 173 225Z" fill="white"/>
<g opacity="0.27">
<path d="M121 231C121 232.104 120.104 233 119 233H106C104.896 233 104 232.104 104 231C104 229.896 104.896 229 106 229H119C120.104 229 121 229.896 121 231Z" fill="#8645FF"/>
</g>
<g opacity="0.15">
<path d="M167 229C168.1 229 169 229.9 169 231C169 232.1 168.1 233 167 233C165.9 233 165 232.1 165 231C165 229.9 165.9 229 167 229ZM130 235C131.1 235 132 235.9 132 237C132 238.1 131.1 239 130 239H106C104.9 239 104 238.1 104 237C104 235.9 104.9 235 106 235H130ZM128 241C128.55 241 129 241.45 129 242C129 242.55 128.55 243 128 243H105C104.45 243 104 242.55 104 242C104 241.45 104.45 241 105 241H128ZM128 245C128.55 245 129 245.45 129 246C129 246.55 128.55 247 128 247H105C104.45 247 104 246.55 104 246C104 245.45 104.45 245 105 245H128ZM167 243C168.1 243 169 243.9 169 245C169 246.1 168.1 247 167 247H143C141.9 247 141 246.1 141 245C141 243.9 141.9 243 143 243H167Z" fill="#A1ACB6"/>
</g>
</g>
<mask id="mask10_967_15" style="mask-type:luminance" maskUnits="userSpaceOnUse" x="100" y="128" width="73" height="28">
<path d="M100 128H173V156H100V128Z" fill="white"/>
</mask>
<g mask="url(#mask10_967_15)">
<path d="M173 129V155C173 155.552 172.552 156 172 156H101C100.448 156 100 155.552 100 155V129C100 128.448 100.448 128 101 128H172C172.552 128 173 128.448 173 129Z" fill="white"/>
<g opacity="0.27">
<path d="M121 135C121 136.104 120.104 137 119 137H106C104.896 137 104 136.104 104 135C104 133.896 104.896 133 106 133H119C120.104 133 121 133.896 121 135Z" fill="#8645FF"/>
</g>
<g opacity="0.15">
<path d="M167 133C168.1 133 169 133.9 169 135C169 136.1 168.1 137 167 137C165.9 137 165 136.1 165 135C165 133.9 165.9 133 167 133ZM130 139C131.1 139 132 139.9 132 141C132 142.1 131.1 143 130 143H106C104.9 143 104 142.1 104 141C104 139.9 104.9 139 106 139H130ZM128 145C128.55 145 129 145.45 129 146C129 146.55 128.55 147 128 147H105C104.45 147 104 146.55 104 146C104 145.45 104.45 145 105 145H128ZM128 149C128.55 149 129 149.45 129 150C129 150.55 128.55 151 128 151H105C104.45 151 104 150.55 104 150C104 149.45 104.45 149 105 149H128ZM167 147C168.1 147 169 147.9 169 149C169 150.1 168.1 151 167 151H143C141.9 151 141 150.1 141 149C141 147.9 141.9 147 143 147H167Z" fill="#A1ACB6"/>
</g>
</g>
<mask id="mask11_967_15" style="mask-type:luminance" maskUnits="userSpaceOnUse" x="100" y="96" width="73" height="28">
<path d="M100 96H173V124H100V96Z" fill="white"/>
</mask>
<g mask="url(#mask11_967_15)">
<path d="M173 97V123C173 123.552 172.552 124 172 124H101C100.448 124 100 123.552 100 123V97C100 96.4481 100.448 96 101 96H172C172.552 96 173 96.4481 173 97Z" fill="white"/>
<g opacity="0.15">
<path d="M167 101C168.1 101 169 101.9 169 103C169 104.1 168.1 105 167 105C165.9 105 165 104.1 165 103C165 101.9 165.9 101 167 101ZM130 107C131.1 107 132 107.9 132 109C132 110.1 131.1 111 130 111H106C104.9 111 104 110.1 104 109C104 107.9 104.9 107 106 107H130ZM128 113C128.55 113 129 113.45 129 114C129 114.55 128.55 115 128 115H105C104.45 115 104 114.55 104 114C104 113.45 104.45 113 105 113H128ZM128 117C128.55 117 129 117.45 129 118C129 118.55 128.55 119 128 119H105C104.45 119 104 118.55 104 118C104 117.45 104.45 117 105 117H128ZM167 115C168.1 115 169 115.9 169 117C169 118.1 168.1 119 167 119H143C141.9 119 141 118.1 141 117C141 115.9 141.9 115 143 115H167Z" fill="#A1ACB6"/>
</g>
</g>
<mask id="mask12_967_15" style="mask-type:luminance" maskUnits="userSpaceOnUse" x="100" y="192" width="73" height="28">
<path d="M100 192H173V220H100V192Z" fill="white"/>
</mask>
<g mask="url(#mask12_967_15)">
<path d="M173 193V219C173 219.552 172.552 220 172 220H101C100.448 220 100 219.552 100 219V193C100 192.448 100.448 192 101 192H172C172.552 192 173 192.448 173 193Z" fill="white"/>
<g opacity="0.15">
<path d="M167 197C168.1 197 169 197.9 169 199C169 200.1 168.1 201 167 201C165.9 201 165 200.1 165 199C165 197.9 165.9 197 167 197ZM130 203C131.1 203 132 203.9 132 205C132 206.1 131.1 207 130 207H106C104.9 207 104 206.1 104 205C104 203.9 104.9 203 106 203H130ZM128 209C128.55 209 129 209.45 129 210C129 210.55 128.55 211 128 211H105C104.45 211 104 210.55 104 210C104 209.45 104.45 209 105 209H128ZM128 213C128.55 213 129 213.45 129 214C129 214.55 128.55 215 128 215H105C104.45 215 104 214.55 104 214C104 213.45 104.45 213 105 213H128ZM167 211C168.1 211 169 211.9 169 213C169 214.1 168.1 215 167 215H143C141.9 215 141 214.1 141 213C141 211.9 141.9 211 143 211H167Z" fill="#A1ACB6"/>
</g>
<g opacity="0.27">
<path d="M121 199C121 200.104 120.104 201 119 201H106C104.896 201 104 200.104 104 199C104 197.896 104.896 197 106 197H119C120.104 197 121 197.896 121 199Z" fill="#8645FF"/>
</g>
</g>
<mask id="mask13_967_15" style="mask-type:luminance" maskUnits="userSpaceOnUse" x="100" y="160" width="73" height="28">
<path d="M100 160H173V188H100V160Z" fill="white"/>
</mask>
<g mask="url(#mask13_967_15)">
<path d="M173 161V187C173 187.552 172.552 188 172 188H101C100.448 188 100 187.552 100 187V161C100 160.448 100.448 160 101 160H172C172.552 160 173 160.448 173 161Z" fill="white"/>
<g opacity="0.15">
<path d="M167 165C168.1 165 169 165.9 169 167C169 168.1 168.1 169 167 169C165.9 169 165 168.1 165 167C165 165.9 165.9 165 167 165ZM130 171C131.1 171 132 171.9 132 173C132 174.1 131.1 175 130 175H106C104.9 175 104 174.1 104 173C104 171.9 104.9 171 106 171H130ZM128 177C128.55 177 129 177.45 129 178C129 178.55 128.55 179 128 179H105C104.45 179 104 178.55 104 178C104 177.45 104.45 177 105 177H128ZM128 181C128.55 181 129 181.45 129 182C129 182.55 128.55 183 128 183H105C104.45 183 104 182.55 104 182C104 181.45 104.45 181 105 181H128ZM167 179C168.1 179 169 179.9 169 181C169 182.1 168.1 183 167 183H143C141.9 183 141 182.1 141 181C141 179.9 141.9 179 143 179H167Z" fill="#A1ACB6"/>
</g>
<g opacity="0.27">
<path d="M121 167C121 168.104 120.104 169 119 169H106C104.896 169 104 168.104 104 167C104 165.896 104.896 165 106 165H119C120.104 165 121 165.896 121 167Z" fill="#8645FF"/>
</g>
</g>
</g>
</g>
<mask id="mask14_967_15" style="mask-type:alpha" maskUnits="userSpaceOnUse" x="95" y="116" width="82" height="164">
<path d="M117.358 116C117.358 119.25 119.988 121.88 123.248 121.88H150.488C153.678 121.88 156.278 119.35 156.378 116.18V116H171.108C174.358 116 176.998 118.63 176.998 121.88V274.12C176.998 274.27 176.998 274.42 176.978 274.57C165.278 278.1 152.858 280 139.998 280C124.538 280 109.718 277.26 95.998 272.24V121.88C95.998 118.63 98.638 116 101.888 116H117.358Z" fill="#D9DFE6"/>
</mask>
<g mask="url(#mask14_967_15)">
<path d="M178 115V135H94V115H178Z" fill="#A1ACB6"/>
<path d="M178 115V135H94V115H178Z" stroke="white" stroke-width="2"/>
</g>
<mask id="mask15_967_15" style="mask-type:alpha" maskUnits="userSpaceOnUse" x="12" y="24" width="256" height="256">
<path d="M140 24C210.643 24 268 81.3568 268 152C268 222.643 210.643 280 140 280C69.3568 280 12 222.643 12 152C12 81.3568 69.3568 24 140 24Z" fill="#D9DFE6"/>
</mask>
<g mask="url(#mask15_967_15)">
<path d="M128 109H125M121 109H114M148 109C152.51 109 160.35 109 171.52 109C178.41 109 184 114.59 184 121.49V273.51C184 280.41 178.41 286 171.52 286H102.48C95.59 286 90 280.41 90 273.51V121C90 114.37 95.37 109 102 109H109" stroke="black" stroke-width="2" stroke-linecap="round"/>
</g>
<mask id="mask16_967_15" style="mask-type:alpha" maskUnits="userSpaceOnUse" x="12" y="24" width="256" height="256">
<path d="M140 24C210.643 24 268 81.3568 268 152C268 222.643 210.643 280 140 280C69.3568 280 12 222.643 12 152C12 81.3568 69.3568 24 140 24Z" fill="#D9DFE6"/>
</mask>
<g mask="url(#mask16_967_15)">
<path d="M230 280L212.84 210.5C211.92 206.76 209.86 203.4 206.96 200.87C201.57 196.41 196.18 191.96 190.79 187.5C187.99 185.18 185.19 182.86 182.39 180.54C179.02 177.61 174.71 176 170.24 176H140V180.38C140 188.27 146.37 194.67 154.23 194.67H165.34C167.29 194.67 169.1 195.64 170.18 197.26L182.35 214.61C183.75 216.73 183.63 219.52 182.04 221.5L175.13 230.12C168.91 237.88 165.38 247.47 165.08 257.43L164 280H230Z" fill="#ADD8FF"/>
<path d="M230 280L212.84 210.5C211.92 206.76 209.86 203.4 206.96 200.87C201.57 196.41 196.18 191.96 190.79 187.5C187.99 185.18 185.19 182.86 182.39 180.54C179.02 177.61 174.71 176 170.24 176H140V180.38C140 188.27 146.37 194.67 154.23 194.67H165.34C167.29 194.67 169.1 195.64 170.18 197.26L182.35 214.61C183.75 216.73 183.63 219.52 182.04 221.5L175.13 230.12C168.91 237.88 165.38 247.47 165.08 257.43L164 280H230Z" stroke="black" stroke-width="2"/>
</g>
<mask id="mask17_967_15" style="mask-type:luminance" maskUnits="userSpaceOnUse" x="210" y="46" width="68" height="73">
<path d="M210.738 46.8618H277.262V118.138H210.738V46.8618Z" fill="white"/>
</mask>
<g mask="url(#mask17_967_15)">
<path d="M244.475 52.564C262.57 52.564 277.262 67.2559 277.262 85.351C277.262 103.446 262.57 118.138 244.475 118.138C226.38 118.138 211.688 103.446 211.688 85.351C211.688 67.2559 226.38 52.564 244.475 52.564Z" fill="#1C8CE7"/>
<path d="M239.367 95.5673H249.583C249.583 98.3993 247.293 100.671 244.48 100.671C241.648 100.671 239.367 98.3898 239.367 95.5673ZM242.772 95.5673C242.772 96.5081 243.532 97.2684 244.473 97.2684C245.414 97.2684 246.174 96.5176 246.174 95.5673H242.772ZM254.692 86.5342L259.577 93.8614H229.375L234.26 86.5342V78.5417C234.26 73.8375 238.071 70.0266 242.794 70.0266H246.158C250.862 70.0266 254.692 73.847 254.692 78.5417V86.5342ZM253.215 90.462L251.285 87.5729V78.5351C251.285 75.7316 248.986 73.4317 246.163 73.4317H242.789C239.948 73.4317 237.667 75.7126 237.667 78.5351V87.5729L235.738 90.462H253.215Z" fill="white"/>
</g>
<path d="M217 62.9299V54.9299M221.596 64.8339L227.253 59.1769M223.5 69.4299H231.5M221.596 74.0259L227.253 79.6829M217 75.9299V83.9299M212.404 74.0259L206.747 79.6829M210.5 69.4299H202.5M212.404 64.8339L206.747 59.1769" stroke="#3A3A3A" stroke-width="2" stroke-miterlimit="10" stroke-dasharray="10 10"/>
<mask id="mask18_967_15" style="mask-type:luminance" maskUnits="userSpaceOnUse" x="22" y="77" width="35" height="35">
<path d="M22.5104 77.5104H56.4896V111.49H22.5104V77.5104Z" fill="white"/>
</mask>
<g mask="url(#mask18_967_15)">
<path d="M39.5 77.5104C48.8766 77.5104 56.4896 85.1234 56.4896 94.4999C56.4896 103.876 48.8766 111.49 39.5 111.49C30.1235 111.49 22.5104 103.876 22.5104 94.4999C22.5104 85.1234 30.1235 77.5104 39.5 77.5104Z" fill="#8645FF"/>
<path d="M27.9192 94.4982C27.9192 88.1032 33.1032 82.9192 39.4983 82.9192C45.8933 82.9192 51.0773 88.1032 51.0773 94.4982C51.0773 100.893 45.8933 106.077 39.4983 106.077C33.1032 106.077 27.9192 100.893 27.9192 94.4982ZM48.975 94.4956C48.975 89.2681 44.7319 85.025 39.4957 85.025C34.2681 85.025 30.0251 89.2681 30.0251 94.4956C30.0251 99.7319 34.2681 103.975 39.4957 103.975C44.7319 103.975 48.975 99.7319 48.975 94.4956ZM38.4493 99.149L33.4918 94.1916L34.9817 92.7017L38.4493 96.1693L44.7659 89.8527V92.8324L38.4493 99.149Z" fill="white"/>
</g>
<mask id="mask19_967_15" style="mask-type:luminance" maskUnits="userSpaceOnUse" x="194" y="100" width="40" height="40">
<path d="M194.642 100.642H233.358V139.358H194.642V100.642Z" fill="white"/>
</mask>
<g mask="url(#mask19_967_15)">
<path d="M214 100.642C224.684 100.642 233.358 109.316 233.358 120C233.358 130.684 224.684 139.358 214 139.358C203.316 139.358 194.642 130.684 194.642 120C194.642 109.316 203.316 100.642 214 100.642Z" fill="#686868"/>
<path d="M214 110.83C208.936 110.83 204.83 114.936 204.83 120C204.83 125.064 208.936 129.17 214 129.17C219.064 129.17 223.17 125.064 223.17 120C223.17 114.936 219.064 110.83 214 110.83ZM214 108.792C220.195 108.792 225.207 113.805 225.207 120C225.207 126.195 220.195 131.207 214 131.207C207.805 131.207 202.793 126.195 202.793 120C202.793 113.805 207.805 108.792 214 108.792Z" fill="white"/>
<path d="M217.355 115.204L218.792 116.641L215.44 120.003L218.792 123.355L217.355 124.792L214.003 121.44L210.641 124.792L209.204 123.355L212.556 120.003L209.204 116.641L210.641 115.204L214.003 118.556L217.355 115.204Z" fill="white"/>
</g>
</g>
</g>
<defs>
<clipPath id="clip0_967_15">
<rect width="280" height="280" fill="white"/>
</clipPath>
</defs>
</svg>
